PathFileType	4	(X/Y/Z)	D:\TRACE\spotREDO_2-26-24\spot_justBody_Motion_1_2-platform.trc
DataRate	CameraRate	NumFrames	NumMarkers	Units	OrigDataRate	OrigDataStartFrame	OrigNumFrames
100.00	100.00	      61	5	mm	100.00	6126	      7000
Frame#	Time	Left_Front			Right_Front			Left_Aft			Right_Aft			Post			
		X1	Y1	Z1	X2	Y2	Z2	X3	Y3	Z3	X4	Y4	Z4	X5	Y5	Z5	

6126	61.250	-738.85663	5.33026	-573.30750	675.63763	12.72940	-488.85153	-810.06177	-5.06188	645.76172	760.20490	2.12164	648.93158	-29.31338	638.83960	-969.82043	
6127	61.260	-738.19873	5.55838	-573.10431	676.47815	12.93018	-488.61975	-809.58215	-5.35885	645.97211	760.77814	1.33689	648.81311	-28.59851	639.05072	-969.30762	
6128	61.270	-737.80322	5.68374	-573.05548	676.91193	13.13261	-488.65121	-809.06433	-5.76190	646.13873	761.50000	1.15146	648.99420	-28.25564	639.64313	-969.32092	
6129	61.280	-737.10480	6.30138	-572.91058	677.55212	13.58663	-488.40106	-808.27515	-6.09092	646.36969	761.93475	0.79287	648.98322	-27.78762	640.35858	-969.08881	
6130	61.290	-736.63208	6.66716	-572.78918	677.90735	13.87144	-488.31104	-807.74280	-6.38630	646.44257	762.42218	0.72307	649.19531	-27.31540	641.00568	-968.78229	
6131	61.300	-736.28949	6.88656	-572.83691	678.37512	14.01655	-488.30127	-807.22217	-6.56001	646.43195	763.00507	0.43968	649.34485	-26.61563	641.43671	-968.31329	
6132	61.310	-735.55267	7.31791	-572.73932	679.45551	14.27343	-488.18875	-806.70001	-6.81575	646.51587	763.47083	0.06303	649.45026	-25.86492	641.72791	-967.53241	
6133	61.320	-735.22278	7.69082	-572.72516	679.88629	14.30438	-488.23215	-806.17352	-7.07079	646.44104	763.90765	-0.26168	649.46979	-25.75627	642.34290	-967.23297	
6134	61.330	-734.63580	7.98257	-572.61554	680.41235	14.77849	-487.96680	-805.58618	-7.40039	646.49469	764.77905	-0.59044	649.62140	-25.17405	642.98938	-966.54071	
6135	61.340	-733.86963	8.24747	-572.40668	680.91132	15.16950	-487.89801	-804.66998	-7.87785	646.71997	765.15637	-0.82132	649.76538	-24.49295	643.41699	-965.87891	
6136	61.350	-733.05219	8.48611	-572.41785	681.73303	15.38262	-487.65268	-804.07422	-8.20539	646.63306	766.25867	-0.86865	649.95038	-23.50664	643.73499	-965.26117	
6137	61.360	-732.46246	8.76228	-572.30450	682.34283	15.46480	-487.64337	-803.53741	-8.43750	646.71954	766.40546	-1.56654	649.76062	-23.17754	644.29199	-965.06775	
6138	61.370	-731.74860	8.87291	-572.26825	682.82135	15.65808	-487.73819	-803.12659	-8.85593	646.64905	767.25677	-1.82384	649.91620	-22.28523	644.99866	-964.60095	
6139	61.380	-731.14288	9.28203	-572.14050	683.59027	16.21437	-487.71570	-802.28674	-9.16968	646.72443	768.02124	-1.92405	649.98126	-21.79016	645.33466	-964.34167	
6140	61.390	-730.62891	9.67851	-572.09259	684.26990	16.54844	-487.49927	-801.31158	-9.39318	646.99121	768.54730	-2.34661	650.00092	-21.05932	645.77136	-964.10565	
6141	61.400	-729.66803	10.01495	-571.91595	684.75726	16.72168	-487.45224	-800.84332	-9.55328	647.05194	769.17371	-2.59747	650.00568	-20.07686	646.15247	-963.86060	
6142	61.410	-729.18866	10.17155	-571.77686	685.59271	16.95400	-487.27231	-800.22186	-9.93924	647.08502	769.97577	-3.14732	649.88116	-19.76114	646.71503	-963.99274	
6143	61.420	-728.50073	10.45990	-571.75073	686.38367	17.05830	-487.21695	-799.48926	-10.06639	647.12231	770.80225	-3.48842	650.01050	-19.01585	647.21002	-963.64130	
6144	61.430	-727.70575	10.71261	-571.80109	687.05359	17.30271	-487.18890	-798.63336	-10.67429	647.32465	771.63568	-3.60587	650.14832	-18.19288	647.73218	-963.23749	
6145	61.440	-727.08093	10.91394	-571.71057	687.70148	17.69300	-487.08765	-797.91919	-11.05781	647.37195	772.39362	-3.71560	650.28967	-17.48805	647.99530	-962.79150	
6146	61.450	-726.13464	11.14944	-571.64545	688.69781	17.90167	-486.89114	-797.25293	-11.14528	647.43811	773.23993	-4.22571	650.40479	-16.79324	648.41870	-962.38477	
6147	61.460	-725.27271	11.48238	-571.58716	689.21765	18.11207	-486.94287	-796.50323	-11.29275	647.57892	773.73035	-4.51448	650.19214	-16.02892	649.03522	-961.73529	
6148	61.470	-724.63080	11.71779	-571.41187	689.81219	18.28219	-486.96631	-795.71307	-11.51775	647.57141	774.42847	-4.51008	650.59882	-14.97262	649.59332	-960.88171	
6149	61.480	-723.96777	11.95344	-571.38000	690.88239	18.63050	-486.94211	-794.96509	-11.81786	647.48273	775.48090	-4.70103	650.64142	-14.61172	649.96326	-960.76202	
6150	61.490	-723.14258	12.30250	-571.30621	691.87048	18.68602	-486.73520	-794.08002	-12.41966	647.45306	775.98462	-4.96092	650.74683	-13.85297	650.32037	-960.26501	
6151	61.500	-722.38544	12.58280	-571.22113	692.38708	18.93265	-486.65964	-793.45789	-12.54578	647.56848	776.80103	-5.22315	650.70978	-12.87187	650.59753	-959.77716	
6152	61.510	-721.41528	12.78437	-571.05969	693.14557	19.05389	-486.64499	-792.57178	-12.63651	647.76392	777.56512	-5.53901	650.84497	-12.02407	651.11804	-959.53284	
6153	61.520	-720.74957	12.94594	-571.08954	693.96448	19.42258	-486.56042	-791.70410	-13.02816	647.77997	778.44702	-5.74448	650.87280	-11.55136	651.54419	-959.61859	
6154	61.530	-719.73303	13.36690	-571.02826	694.74762	19.86424	-486.53247	-790.91766	-13.18648	647.90778	779.20490	-6.04447	651.04626	-10.54502	652.10876	-959.49219	
6155	61.540	-719.21979	13.61335	-570.93860	695.85620	20.08429	-486.33728	-790.02197	-13.54027	648.06244	780.21887	-6.39670	651.24854	-9.54692	652.49060	-959.23242	
6156	61.550	-718.27350	13.94282	-570.80737	696.29388	20.25926	-486.41925	-789.20032	-13.88313	648.10632	780.79523	-6.71794	651.19183	-8.79109	652.70276	-958.91223	
6157	61.560	-717.52167	14.22981	-570.73926	697.29230	20.33322	-486.13556	-788.44641	-13.94413	648.10138	781.75861	-6.98035	651.22369	-7.67931	653.14655	-958.41742	
6158	61.570	-716.52521	14.41411	-570.73505	698.35101	20.58526	-486.20386	-787.51660	-14.08901	648.17639	782.66089	-7.20843	651.17804	-7.17116	653.65906	-958.33380	
6159	61.580	-715.77374	14.61616	-570.62750	699.07117	20.88560	-486.12564	-786.66150	-14.36838	648.25598	783.22388	-7.65630	650.93561	-6.44941	654.07086	-957.96320	
6160	61.590	-714.65790	14.82262	-570.59442	699.75385	20.95070	-486.02692	-785.89551	-14.83373	648.11206	784.36401	-8.05751	651.06891	-5.07975	654.42590	-957.12732	
6161	61.600	-713.88214	14.84781	-570.70355	701.00220	21.01870	-485.86108	-784.83142	-15.05771	648.27191	785.26697	-8.10701	651.18353	-4.44711	654.81403	-956.84515	
6162	61.610	-713.19226	15.33924	-570.31000	701.70856	21.23796	-485.90118	-784.03979	-15.11763	648.46655	786.17657	-8.26074	651.17603	-3.78080	655.09698	-956.45319	
6163	61.620	-712.31921	15.59300	-570.25043	702.77899	21.56585	-485.67975	-783.07385	-15.48308	648.48309	787.24548	-8.49804	651.39636	-2.89589	655.39771	-955.92316	
6164	61.630	-711.16382	15.71636	-570.30402	703.47028	21.77753	-485.72760	-782.03088	-15.59599	648.60059	788.10022	-8.61479	651.40332	-1.97818	655.95001	-955.63525	
6165	61.640	-710.17584	15.90129	-570.22052	704.36682	21.88541	-485.65338	-781.36432	-15.85427	648.61694	788.83862	-8.66238	651.56482	-1.13654	656.34570	-955.44983	
6166	61.650	-709.61829	16.20689	-570.32532	705.39685	22.05441	-485.57434	-780.34686	-16.00191	648.78912	789.85779	-8.86104	651.58899	-0.36138	656.64587	-955.41174	
6167	61.660	-708.68237	16.43763	-570.13904	706.14795	22.39402	-485.69568	-779.39349	-16.37260	648.70361	790.61279	-9.17995	651.69165	0.88297	657.08502	-955.17157	
6168	61.670	-707.67773	16.65818	-570.08942	707.27832	22.55966	-485.51382	-778.59619	-16.63551	648.73773	791.49078	-9.27311	651.81122	1.60341	657.31342	-955.12854	
6169	61.680	-706.48749	16.90837	-569.88861	708.09845	22.62390	-485.62961	-777.90601	-16.90264	648.74133	792.68420	-9.45353	651.94257	2.64823	657.65814	-954.89191	
6170	61.690	-706.02124	17.05866	-569.95630	708.80389	22.79108	-485.49252	-776.62000	-16.78634	648.80804	793.26849	-9.75894	651.84760	3.56801	658.01855	-954.66241	
6171	61.700	-704.82825	17.34354	-569.86249	710.31836	22.97324	-485.27631	-775.91443	-16.85628	648.84656	794.32770	-9.97571	651.82208	4.67013	658.34094	-954.24634	
6172	61.710	-703.97113	17.48233	-569.86395	711.04608	23.13156	-485.11063	-774.77722	-17.45138	648.92780	795.26947	-10.21706	651.85474	5.23831	658.59265	-953.99011	
6173	61.720	-702.75446	17.39274	-569.70630	711.84259	23.27851	-485.16815	-773.71527	-17.73216	648.91602	796.14136	-10.39700	651.96661	6.42390	659.05884	-953.40771	
6174	61.730	-701.95520	17.74253	-569.65369	712.76172	23.49905	-485.17337	-772.82208	-17.70627	649.00916	797.27704	-10.60002	652.18652	7.31497	659.34833	-953.19110	
6175	61.740	-701.09320	18.02651	-569.55890	713.69049	23.80577	-484.92416	-771.97491	-17.76404	649.05475	798.32135	-10.69563	652.18372	7.96510	659.54523	-953.05536	
6176	61.750	-700.21765	18.23691	-569.61292	714.67047	23.97279	-484.97528	-771.10687	-17.91821	649.05237	799.03687	-10.80507	652.20508	9.20176	659.90216	-952.59344	
6177	61.760	-699.00110	18.35328	-569.58527	715.53528	24.31515	-485.08490	-770.06812	-18.11220	649.13562	800.37659	-11.67908	651.99341	10.18081	660.23621	-952.22778	
6178	61.770	-698.20428	18.57770	-569.42816	716.41119	24.32921	-484.95990	-769.04810	-18.63713	649.23651	800.93719	-11.55308	652.05139	10.96624	660.56268	-951.97827	
6179	61.780	-697.24744	18.78517	-569.41547	717.58508	24.44334	-484.89346	-768.09558	-18.89009	649.31726	802.38037	-11.89075	652.02124	12.17010	661.02930	-951.84869	
6180	61.790	-696.31799	19.01785	-569.30280	718.18512	24.88769	-485.05157	-767.22656	-18.97165	649.30640	803.01868	-12.05122	651.91302	13.09723	661.37476	-951.65045	
6181	61.800	-695.39154	19.25899	-569.25159	719.65002	25.09649	-484.80508	-766.34351	-19.13711	649.20288	804.09015	-12.00946	652.16309	13.87011	661.63135	-951.26880	
6182	61.810	-694.27570	19.15901	-569.27191	720.46240	25.11996	-484.77881	-765.19769	-19.15288	649.26007	805.05200	-12.06712	652.35815	14.83940	661.87024	-951.16931	
6183	61.820	-693.19202	19.33988	-569.11212	721.21002	25.07252	-484.66187	-764.13696	-19.35119	649.36755	805.59149	-12.19304	652.33069	15.98221	662.07477	-950.98981	
6184	61.830	-692.34467	19.54420	-569.12531	722.43896	25.10101	-484.56812	-763.30646	-19.59329	649.37860	806.75763	-12.31535	652.29242	16.96991	662.25836	-950.90167	
6185	61.840	-691.46295	19.57352	-569.11536	723.33649	25.40866	-484.48474	-762.23468	-19.69905	649.43628	807.82892	-12.42212	652.42932	17.74092	662.50531	-950.74738	
6186	61.850	-690.42902	19.72875	-569.04620	724.25787	25.66247	-484.63638	-761.38947	-19.95397	649.50433	808.91376	-12.31973	652.49933	18.85063	662.84143	-950.70264	
